<?xml version="1.0" encoding="utf-8"?>
<!-- Generator: Adobe Illustrator 24.0.1, SVG Export Plug-In . SVG Version: 6.00 Build 0)  -->
<svg version="1.1" xmlns="http://www.w3.org/2000/svg" xmlns:xlink="http://www.w3.org/1999/xlink" x="0px" y="0px"
	 viewBox="0 0 334 195.8" style="enable-background:new 0 0 334 195.8;" xml:space="preserve">
<style type="text/css">
	.st0{fill:#7C00FF;}
</style>
<g id="Layer_2">
	<polygon class="st0" points="29.6,22.7 25.4,46.3 116.3,62 48.7,117.9 64.5,136.1 134.1,77.7 148.5,89.8 167,76.7 185.8,70.7 
		270.3,138.5 286.7,119.4 215.2,59.4 308.9,48.5 307,24.4 192.4,37.2 168.1,27.8 167,30 143.6,19.5 122.4,31.9 127.7,37.5 	"/>
</g>
<g id="Layer_1">
	<path d="M168,82.2c-1.9,0-3.1-1.2-3.1-3V27.4c0-1.8,1.3-3,3.1-3c0.3,0,0.9,0,1.3,0.3l23.8,9.9c1.3,0.6,1.9,1.5,1.9,2.7v31.3
		c0,1.2-0.6,2.1-1.9,2.7l-23.8,10.2C168.9,82.2,168.3,82.2,168,82.2z M171.1,31.9v42.5l17.6-7.5V39.4L171.1,31.9z"/>
	<path d="M270.8,140.9c-0.6,0-1.6-0.3-2.2-0.6L186.2,75c-1.3-1.2-1.6-3-0.3-4.2c1.3-1.2,3.1-1.5,4.4-0.3l80,63.3l12.2-13.6
		l-92.2-76.2c-1.3-1.2-1.6-3-0.3-4.2c1.3-1.2,3.1-1.5,4.4-0.3l0,0l94.7,78c1.3,1.2,1.6,3,0.3,4.2l0,0L273,140
		C272.7,140.3,271.8,140.6,270.8,140.9L270.8,140.9z"/>
	<path d="M213.1,61.1c-1.9,0-3.1-1.2-3.5-2.7c-0.3-1.5,1.3-3,2.8-3.3l93.5-9.6l-1.9-18.1L191.8,39.1c-1.9,0.3-3.1-0.9-3.5-2.7
		c-0.3-1.8,0.9-3,2.8-3.3l115.7-11.7c1.6-0.3,3.1,0.9,3.5,2.7l0,0l2.5,24.1c0,1.8-1.3,3-2.8,3.3l0,0L213.1,61.1L213.1,61.1z"/>
	<path d="M115.9,64.4h-0.6L23.7,48.8c-1.6-0.3-2.8-1.8-2.5-3.6l0,0l4.7-23.2c0.3-1.5,1.9-2.7,3.8-2.4L135,36.4
		c1.6,0.6,2.8,2.1,2.5,3.6c-0.3,1.5-1.9,3-3.8,2.7L31.5,26.2l-3.5,17.2l88.5,15.1c1.9,0,3.1,1.5,2.8,3.3
		C119,63.5,117.5,64.4,115.9,64.4L115.9,64.4z"/>
	<path d="M167,62c-0.6,0-1.3-0.3-1.6-0.6l-43.9-26.5c-1.6-0.9-2.2-2.7-1.3-3.9c0.3-0.3,0.6-0.6,0.9-0.9l21.6-13.6
		c0.9-0.6,2.2-0.6,3.1,0l23.5,12.1c1.6,0.6,2.2,2.4,1.3,3.9c-0.9,1.5-2.5,1.8-4.1,1.2l-22-11.1l-16,9.9l39.8,23.8
		c1.6,0.9,1.9,2.7,0.9,4.2C169.2,61.4,168.3,62,167,62L167,62z"/>
	<path d="M64.8,140.3L64.8,140.3c-0.9,0-1.9-0.3-2.5-0.9l-16-18.7c-1.3-1.2-0.9-3,0.3-4.2l91-75.9c1.3-0.9,3.5-0.9,4.4,0.3
		c0.9,1.2,0.9,3-0.3,4.2l-88.5,74.1l12.2,13.9l93.8-79.2c1.3-1.2,3.1-1.2,4.4,0c1.3,1.2,1.3,3,0,4.2c0,0,0,0-0.3,0.3L67,139.7
		C66.3,140,65.7,140.3,64.8,140.3z"/>
	<path d="M148.8,91.8c-1.9,0-3.1-1.5-3.1-3c0-0.9,0.6-1.8,1.3-2.4l18.5-13.6c1.6-0.9,3.5-0.6,4.4,0.9c0.9,1.2,0.6,3-0.6,3.9
		l-18.5,13.6C150.1,91.5,149.5,91.8,148.8,91.8z"/>
	<path d="M147.9,91.5c-0.6,0-1.6-0.3-1.9-0.6l-11.6-9c-1.3-1.2-1.3-3-0.3-4.2c0.9-1.2,2.8-1.2,4.1-0.3l11.6,9c1.3,0.9,1.6,3,0.6,4.2
		C149.8,91.2,148.8,91.5,147.9,91.5L147.9,91.5z"/>
	<polygon points="79.5,125.3 62.6,107.8 82.7,90.6 99.3,108.1 	"/>
	<polygon points="58.6,111.9 61,109.9 77.2,127 74.9,129 	"/>
	<polygon points="85.3,87.8 87.6,85.8 103.9,102.9 101.6,104.9 	"/>
</g>
</svg>
